<?xml version="1.0" ?>
<svg id="Expanded" viewBox="0 0 64 64" xmlns="http://www.w3.org/2000/svg">
  <symbol id="cloudy">
    <g fill="currentColor">
      <path d="M39,12.58a1,1,0,0,0,1-1V9.44a1,1,0,1,0-2,0v2.14A1,1,0,0,0,39,12.58Z"/>
      <path
        d="M47.92,15a.91.91,0,0,0,.45.11,1,1,0,0,0,.89-.55s.26-.5,1.09-1.81a1,1,0,1,0-1.69-1.07,21.44,21.44,0,0,0-1.18,2A1,1,0,0,0,47.92,15Z"/>
      <path
        d="M55.33,21.94a1,1,0,0,0,.54-.17s.4-.25,1.7-1a1,1,0,1,0-1-1.76c-1.39.76-1.8,1-1.84,1.06a1,1,0,0,0,.56,1.83Z"/>
      <path d="M60,29.42H57.85a1,1,0,0,0,0,2H60a1,1,0,0,0,0-2Z"/>
      <path d="M57.63,40.07l-1.75-1.13a1,1,0,1,0-1.11,1.67l1.79,1.15a1,1,0,0,0,1.38-.31A1,1,0,0,0,57.63,40.07Z"/>
      <path
        d="M20.33,20.81c1.42.77,1.93,1,1.93,1a1.06,1.06,0,0,0,.45.11,1,1,0,0,0,.89-.55A1,1,0,0,0,23.16,20s-.52-.25-1.87-1a1,1,0,0,0-1.36.4A1,1,0,0,0,20.33,20.81Z"/>
      <path
        d="M28.64,14.56a1,1,0,0,0,.9.55A1,1,0,0,0,30,15a1,1,0,0,0,.45-1.34s-.26-.52-1-1.93a1,1,0,1,0-1.75,1C28.38,14,28.63,14.55,28.64,14.56Z"/>
      <path
        d="M50.36,42.88a10.65,10.65,0,0,0-.74-2.19,14.29,14.29,0,0,0,3.63-6.46A14.58,14.58,0,0,0,51.8,23a14.81,14.81,0,0,0-26.9,2.64A14.83,14.83,0,0,0,10.41,38.7a8.46,8.46,0,0,0,1.05,16.86H49.68a6.41,6.41,0,0,0,6.14-6.43A6.31,6.31,0,0,0,50.36,42.88ZM42.29,18a12.9,12.9,0,0,1,7.77,6,12.94,12.94,0,0,1-1.48,14.89,10.67,10.67,0,0,0-6-4.1l-.1,0c-.33-.08-.66-.14-1-.19l-.27,0A8.62,8.62,0,0,0,40,34.48c-.39,0-.75,0-1.13,0A14.63,14.63,0,0,0,27,25.72,12.74,12.74,0,0,1,42.29,18Zm7.34,35.58H11.46a6.46,6.46,0,0,1-.13-12.91h.95l.05-.93A13,13,0,0,1,25.24,27.63a12.1,12.1,0,0,1,1.21.06l.27,0c.35,0,.69.09,1,.16l.13,0A12.93,12.93,0,0,1,38.14,40.53a10.29,10.29,0,0,1-.56,3.8,1,1,0,0,0,.56,1.3,1,1,0,0,0,.37.07,1,1,0,0,0,.93-.62,12.39,12.39,0,0,0,.7-4.55,15.06,15.06,0,0,0-.57-4.05H40a7.17,7.17,0,0,1,1,.07l.2,0A8.57,8.57,0,0,1,47.49,41l.47.86A9,9,0,0,1,48.52,44l.11.87h.88a4.37,4.37,0,0,1,4.31,4.31A4.41,4.41,0,0,1,49.63,53.56Z"/>
    </g>
  </symbol>

  <symbol id="stormy">
    <g fill="currentColor">
      <path
        d="M58.18,31.32a12.37,12.37,0,0,0,.93-4.59,12,12,0,0,0-12-12h-.64a9,9,0,0,0-8.6-6.64,8.7,8.7,0,0,0-6.93,3.3,16.4,16.4,0,0,0-3.49-.34c-.53,0-1.05,0-1.56.07a16.27,16.27,0,0,0-10.36,5l-.11.1c-.23.26-.46.52-.67.79a4.94,4.94,0,0,0-.36.44A6.42,6.42,0,0,0,14,18c-.19.27-.38.54-.55.82,0,.08-.1.16-.14.24a15.71,15.71,0,0,0-2.05,5.6l0,.08c0,.24-.08.47-.11.7a9.23,9.23,0,0,0,1,18.39H22.23a1,1,0,1,0,0-2H12.17a7.23,7.23,0,0,1-.09-14.45l.91,0,.06-.9a14.41,14.41,0,0,1,28.78,1,14.72,14.72,0,0,1-.66,4.32A1,1,0,0,0,41.83,33a1,1,0,0,0,.29.05,1,1,0,0,0,1-.71,16.68,16.68,0,0,0,.75-4.91,17.15,17.15,0,0,0-.19-2.4,8.86,8.86,0,0,1,3,.81,8,8,0,0,1,3.67,10.63,1,1,0,0,0,.48,1.34,1.07,1.07,0,0,0,.43.09,1,1,0,0,0,.9-.57,10,10,0,0,0-4.63-13.29,10.28,10.28,0,0,0-4.3-1A16.45,16.45,0,0,0,33,12.05a6.77,6.77,0,0,1,4.83-2A7,7,0,0,1,44.69,16l.17,1.09,1.06-.27a4.88,4.88,0,0,1,1.18-.09,10,10,0,0,1,10,10A10.68,10.68,0,0,1,56,31.28l-.39.86.83.45a4.93,4.93,0,0,1-2.25,9.24H31.94a1,1,0,1,0,0,2h22.3a6.93,6.93,0,0,0,3.94-12.51Z"/>
      <path
        d="M42.6,46.4a1,1,0,0,0-1.29.57l-1.54,4a1,1,0,0,0,.57,1.29.92.92,0,0,0,.36.07,1,1,0,0,0,.94-.65l1.54-4A1,1,0,0,0,42.6,46.4Z"/>
      <path
        d="M34.54,46.4a1,1,0,0,0-1.29.58l-2.84,7.58A1,1,0,0,0,31,55.85a1,1,0,0,0,1.29-.59l2.84-7.58A1,1,0,0,0,34.54,46.4Z"/>
      <path
        d="M17.36,46.39a1,1,0,0,0-1.28.6l-2.72,7.58a1,1,0,0,0,.6,1.28,1,1,0,0,0,.34.06,1,1,0,0,0,.94-.66L18,47.67A1,1,0,0,0,17.36,46.39Z"/>
      <path
        d="M50.05,46.4a1,1,0,0,0-1.29.58l-2.84,7.58a1,1,0,0,0,.59,1.29,1,1,0,0,0,.35.06,1,1,0,0,0,.93-.65l2.85-7.58A1,1,0,0,0,50.05,46.4Z"/>
      <path
        d="M30.83,36.54a1.07,1.07,0,0,0-1-1.08h-7l4.64-10.32a.93.93,0,0,0-.59-1.27,1,1,0,0,0-1.38.49l-5.3,11.79a1.08,1.08,0,0,0,.59,1.38,1,1,0,0,0,.39.07v0h7.1L23.17,51a1,1,0,0,0,.59,1.27,1.07,1.07,0,0,0,1.37-.59l5.56-14.62A1.11,1.11,0,0,0,30.83,36.54Z"/>
    </g>
  </symbol>

  <symbol id="sunny">
    <g fill="currentColor">
      <path
        d="M37,13.11A19.52,19.52,0,0,0,15.06,41.76a19,19,0,0,0,11.77,9,19.64,19.64,0,0,0,5.18.7,19.4,19.4,0,0,0,9.75-2.64,19.08,19.08,0,0,0,9-11.78A19.5,19.5,0,0,0,37,13.11ZM48.79,36.48a17.11,17.11,0,0,1-8,10.57,17.45,17.45,0,0,1-13.41,1.74,17.11,17.11,0,0,1-10.57-8A17.55,17.55,0,0,1,31.9,14.42a17.17,17.17,0,0,1,4.57.62A17.51,17.51,0,0,1,48.79,36.48Z"/>
      <path d="M32,7.8a1,1,0,0,0,1-1V3.93a1,1,0,1,0-2,0V6.8A1,1,0,0,0,32,7.8Z"/>
      <path
        d="M44.06,11.08a1.06,1.06,0,0,0,.45.11,1,1,0,0,0,.9-.55,27.84,27.84,0,0,1,1.47-2.45,1,1,0,0,0-.31-1.38,1,1,0,0,0-1.38.3,30.23,30.23,0,0,0-1.57,2.63A1,1,0,0,0,44.06,11.08Z"/>
      <path
        d="M53.82,20.32a1,1,0,0,0,.55-.17s.52-.34,2.29-1.31a1,1,0,1,0-1-1.75c-1.84,1-2.38,1.36-2.44,1.39a1,1,0,0,0,.56,1.84Z"/>
      <path d="M60.07,31H57.2a1,1,0,0,0,0,2h2.87a1,1,0,0,0,0-2Z"/>
      <path
        d="M56.72,45.19c-1.83-1.16-2.34-1.5-2.35-1.51a1,1,0,1,0-1.11,1.67s.51.34,2.38,1.53a1.09,1.09,0,0,0,.54.16,1,1,0,0,0,.54-1.85Z"/>
      <path
        d="M45.35,53.26a1,1,0,1,0-1.67,1.11s.35.52,1.51,2.35a1,1,0,0,0,.85.46.94.94,0,0,0,.53-.16,1,1,0,0,0,.31-1.38C45.69,53.77,45.35,53.26,45.35,53.26Z"/>
      <path d="M32,56.2a1,1,0,0,0-1,1v2.87a1,1,0,0,0,2,0V57.2A1,1,0,0,0,32,56.2Z"/>
      <path d="M18.48,53.26c0,.06-.39.6-1.39,2.44a1,1,0,1,0,1.75,1c1-1.77,1.31-2.29,1.31-2.29a1,1,0,0,0-1.67-1.11Z"/>
      <path
        d="M9.74,43.62a30.23,30.23,0,0,0-2.63,1.57A1,1,0,0,0,7.65,47a1.09,1.09,0,0,0,.54-.16c1.76-1.13,2.44-1.47,2.44-1.47a1,1,0,0,0-.89-1.79Z"/>
      <path d="M7.8,32a1,1,0,0,0-1-1H3.93a1,1,0,1,0,0,2H6.8A1,1,0,0,0,7.8,32Z"/>
      <path d="M7.17,18.84c1.88,1,2.57,1.37,2.57,1.37a1,1,0,0,0,.89-1.79s-.68-.34-2.5-1.33a1,1,0,1,0-1,1.75Z"/>
      <path
        d="M18.42,10.63a1,1,0,0,0,.9.56,1,1,0,0,0,.89-1.45s-.34-.69-1.37-2.57a1,1,0,1,0-1.75,1C18.08,10,18.42,10.62,18.42,10.63Z"/>
    </g>
  </symbol>

</svg>
